<svg version="1.1" viewBox="0.0 0.0 500.0 500.0" fill="none" stroke="none" stroke-linecap="square" stroke-miterlimit="10" xmlns:xlink="http://www.w3.org/1999/xlink" xmlns="http://www.w3.org/2000/svg"><clipPath id="p.0"><path d="m0 0l500.0 0l0 500.0l-500.0 0l0 -500.0z" clip-rule="nonzero"/></clipPath><g clip-path="url(#p.0)"><path fill="#000000" fill-opacity="0.0" d="m0 0l500.0 0l0 500.0l-500.0 0z" fill-rule="evenodd"/><path fill="#000000" fill-opacity="0.0" d="m0 94.2021l500.59842 0l0 405.82678l-500.59842 0z" fill-rule="evenodd"/><path fill="#bf9000" d="m84.76344 153.1221q-0.890625 0 -1.46875 -0.5625q-0.5625 -0.578125 -0.5625 -1.46875l0 -36.546875q0 -0.890625 0.5625 -1.453125q0.578125 -0.578125 1.46875 -0.578125l27.65625 0q0.890625 0 1.453125 0.578125q0.578125 0.5625 0.578125 1.453125l0 36.546875q0 0.890625 -0.578125 1.46875q-0.5625 0.5625 -1.453125 0.5625q-0.875 0 -1.453125 -0.5625q-0.578125 -0.578125 -0.578125 -1.46875l0 -34.78125l-23.609375 0l0 34.78125q0 0.890625 -0.578125 1.46875q-0.5625 0.5625 -1.4375 0.5625zm52.510666 0.265625q-4.15625 0 -7.4375 -1.875q-3.265625 -1.875 -5.140625 -5.140625q-1.875 -3.28125 -1.875 -7.453125q0 -4.203125 1.875 -7.46875q1.875 -3.28125 5.140625 -5.15625q3.28125 -1.875 7.4375 -1.875q4.15625 0 7.40625 1.875q3.25 1.875 5.125 5.15625q1.875 3.265625 1.921875 7.46875q0 4.171875 -1.90625 7.453125q-1.890625 3.265625 -5.140625 5.140625q-3.25 1.875 -7.40625 1.875zm0 -3.640625q3.015625 0 5.40625 -1.40625q2.390625 -1.40625 3.734375 -3.84375q1.359375 -2.453125 1.359375 -5.578125q0 -3.109375 -1.359375 -5.578125q-1.34375 -2.46875 -3.734375 -3.875q-2.390625 -1.40625 -5.40625 -1.40625q-3.015625 0 -5.40625 1.40625q-2.390625 1.40625 -3.765625 3.875q-1.375 2.46875 -1.375 5.578125q0 3.125 1.375 5.578125q1.375 2.4375 3.765625 3.84375q2.390625 1.40625 5.40625 1.40625zm24.28215 3.375q-0.9375 0 -1.484375 -0.546875q-0.53125 -0.546875 -0.53125 -1.484375l0 -24.390625q0 -0.9375 0.53125 -1.46875q0.546875 -0.546875 1.484375 -0.546875q1.359375 0 2.1875 1.234375l11.5 16.640625l11.484375 -16.640625q0.828125 -1.234375 2.1875 -1.234375q0.9375 0 1.484375 0.546875q0.546875 0.53125 0.546875 1.46875l0 24.390625q0 0.9375 -0.546875 1.484375q-0.546875 0.546875 -1.484375 0.546875q-0.9375 0 -1.46875 -0.546875q-0.515625 -0.546875 -0.515625 -1.484375l0 -21.78125l1.3125 0.40625l-11.140625 16.078125q-0.828125 1.1875 -1.921875 1.1875q-1.09375 0 -1.875 -1.1875l-11.125 -15.921875l1.359375 -0.40625l0 21.625q0 0.9375 -0.53125 1.484375q-0.515625 0.546875 -1.453125 0.546875zm51.643036 0.265625q-4.21875 0 -7.46875 -1.84375q-3.25 -1.859375 -5.09375 -5.125q-1.84375 -3.28125 -1.84375 -7.5q0 -4.25 1.734375 -7.5q1.75 -3.25 4.8125 -5.125q3.078125 -1.875 7.078125 -1.875q3.953125 0 6.890625 1.796875q2.9375 1.796875 4.546875 4.96875q1.609375 3.171875 1.609375 7.21875q0 0.828125 -0.515625 1.328125q-0.515625 0.5 -1.359375 0.5l-22.09375 0l0 -3.328125l22.515625 0l-2.234375 1.609375q0.046875 -3.015625 -1.09375 -5.40625q-1.140625 -2.390625 -3.25 -3.734375q-2.109375 -1.359375 -5.015625 -1.359375q-2.96875 0 -5.203125 1.40625q-2.234375 1.390625 -3.453125 3.859375q-1.21875 2.46875 -1.21875 5.640625q0 3.171875 1.375 5.625q1.375 2.4375 3.765625 3.84375q2.390625 1.40625 5.515625 1.40625q1.875 0 3.765625 -0.640625q1.90625 -0.65625 3.046875 -1.640625q0.5625 -0.46875 1.296875 -0.5q0.734375 -0.03125 1.25 0.390625q0.671875 0.625 0.6875 1.359375q0.03125 0.71875 -0.578125 1.234375q-1.71875 1.46875 -4.375 2.4375q-2.65625 0.953125 -5.09375 0.953125zm30.684906 0q-4.109375 0 -7.3125 -1.890625q-3.203125 -1.90625 -5.046875 -5.1875q-1.84375 -3.28125 -1.84375 -7.390625q0 -4.15625 1.765625 -7.421875q1.765625 -3.28125 4.828125 -5.171875q3.078125 -1.90625 7.078125 -1.90625q3.171875 0 5.84375 1.25q2.6875 1.25 4.71875 3.734375q0.5625 0.625 0.40625 1.328125q-0.15625 0.703125 -0.875 1.234375q-0.578125 0.40625 -1.28125 0.28125q-0.703125 -0.140625 -1.21875 -0.75q-3.015625 -3.4375 -7.59375 -3.4375q-2.90625 0 -5.125 1.40625q-2.203125 1.40625 -3.421875 3.84375q-1.21875 2.4375 -1.21875 5.609375q0 3.125 1.296875 5.578125q1.296875 2.4375 3.640625 3.84375q2.34375 1.40625 5.359375 1.40625q2.015625 0 3.703125 -0.546875q1.703125 -0.546875 3.0 -1.6875q0.625 -0.53125 1.296875 -0.578125q0.671875 -0.046875 1.25 0.421875q0.625 0.5625 0.703125 1.296875q0.078125 0.71875 -0.5 1.25q-3.796875 3.484375 -9.453125 3.484375zm56.674393 -0.265625q-0.890625 0 -1.46875 -0.546875q-0.5625 -0.546875 -0.5625 -1.421875l0 -14.984375q0 -3.6875 -1.921875 -5.84375q-1.921875 -2.15625 -4.9375 -2.15625q-3.234375 0 -5.28125 2.15625q-2.046875 2.15625 -2.0 5.734375l-3.59375 0q0.0625 -3.484375 1.515625 -6.125q1.453125 -2.65625 4.0 -4.109375q2.546875 -1.453125 5.765625 -1.453125q3.078125 0 5.4375 1.453125q2.375 1.453125 3.6875 4.109375q1.328125 2.640625 1.328125 6.234375l0 14.984375q0 0.875 -0.546875 1.421875q-0.546875 0.546875 -1.421875 0.546875zm-36.40625 0q-0.9375 0 -1.484375 -0.546875q-0.53125 -0.546875 -0.53125 -1.421875l0 -24.453125q0 -0.875 0.53125 -1.4375q0.546875 -0.578125 1.484375 -0.578125q0.890625 0 1.4375 0.578125q0.546875 0.5625 0.546875 1.4375l0 24.453125q0 0.875 -0.546875 1.421875q-0.546875 0.546875 -1.4375 0.546875zm18.25 0q-0.875 0 -1.453125 -0.546875q-0.5625 -0.546875 -0.5625 -1.421875l0 -14.984375q0 -3.6875 -1.9375 -5.84375q-1.921875 -2.15625 -4.9375 -2.15625q-3.21875 0 -5.296875 2.109375q-2.078125 2.09375 -2.078125 5.46875l-2.859375 0q0.09375 -3.328125 1.46875 -5.890625q1.390625 -2.578125 3.78125 -4.03125q2.390625 -1.453125 5.40625 -1.453125q3.0625 0 5.421875 1.453125q2.375 1.453125 3.703125 4.109375q1.328125 2.640625 1.328125 6.234375l0 14.984375q0 0.875 -0.546875 1.421875q-0.546875 0.546875 -1.4375 0.546875zm41.353455 0.3125q-3.703125 0 -6.609375 -1.53125q-2.90625 -1.53125 -4.609375 -4.5q-1.6875 -2.96875 -1.6875 -7.234375l0 -13.515625q0 -0.828125 0.5625 -1.390625q0.578125 -0.578125 1.421875 -0.578125q0.875 0 1.4375 0.578125q0.578125 0.5625 0.578125 1.390625l0 13.515625q0 3.234375 1.21875 5.3125q1.234375 2.078125 3.328125 3.125q2.109375 1.03125 4.765625 1.03125q2.546875 0 4.59375 -0.984375q2.0625 -0.984375 3.25 -2.703125q1.203125 -1.71875 1.203125 -3.90625l2.859375 0q-0.15625 3.28125 -1.796875 5.859375q-1.625 2.5625 -4.390625 4.046875q-2.75 1.484375 -6.125 1.484375zm11.4375 -0.3125q-0.890625 0 -1.4375 -0.546875q-0.546875 -0.546875 -0.546875 -1.484375l0 -24.4375q0 -0.890625 0.546875 -1.421875q0.546875 -0.546875 1.4375 -0.546875q0.875 0 1.453125 0.546875q0.578125 0.53125 0.578125 1.421875l0 24.4375q0 0.9375 -0.578125 1.484375q-0.578125 0.546875 -1.453125 0.546875zm49.813354 0q-0.890625 0 -1.46875 -0.546875q-0.5625 -0.546875 -0.5625 -1.421875l0 -14.984375q0 -3.6875 -1.921875 -5.84375q-1.921875 -2.15625 -4.9375 -2.15625q-3.234375 0 -5.28125 2.15625q-2.046875 2.15625 -2.0 5.734375l-3.59375 0q0.0625 -3.484375 1.515625 -6.125q1.453125 -2.65625 4.0 -4.109375q2.546875 -1.453125 5.765625 -1.453125q3.078125 0 5.4375 1.453125q2.375 1.453125 3.6875 4.109375q1.328125 2.640625 1.328125 6.234375l0 14.984375q0 0.875 -0.546875 1.421875q-0.546875 0.546875 -1.421875 0.546875zm-36.40625 0q-0.9375 0 -1.484375 -0.546875q-0.53125 -0.546875 -0.53125 -1.421875l0 -24.453125q0 -0.875 0.53125 -1.4375q0.546875 -0.578125 1.484375 -0.578125q0.890625 0 1.4375 0.578125q0.546875 0.5625 0.546875 1.4375l0 24.453125q0 0.875 -0.546875 1.421875q-0.546875 0.546875 -1.4375 0.546875zm18.25 0q-0.875 0 -1.453125 -0.546875q-0.5625 -0.546875 -0.5625 -1.421875l0 -14.984375q0 -3.6875 -1.9375 -5.84375q-1.921875 -2.15625 -4.9375 -2.15625q-3.21875 0 -5.296875 2.109375q-2.078125 2.09375 -2.078125 5.46875l-2.859375 0q0.09375 -3.328125 1.46875 -5.890625q1.390625 -2.578125 3.78125 -4.03125q2.390625 -1.453125 5.40625 -1.453125q3.0625 0 5.421875 1.453125q2.375 1.453125 3.703125 4.109375q1.328125 2.640625 1.328125 6.234375l0 14.984375q0 0.875 -0.546875 1.421875q-0.546875 0.546875 -1.4375 0.546875zm41.86908 0.265625q-4.21875 0 -7.46875 -1.84375q-3.25 -1.859375 -5.09375 -5.125q-1.84375 -3.28125 -1.84375 -7.5q0 -4.25 1.734375 -7.5q1.75 -3.25 4.8125 -5.125q3.078125 -1.875 7.078125 -1.875q3.953125 0 6.890625 1.796875q2.9375 1.796875 4.546875 4.96875q1.609375 3.171875 1.609375 7.21875q0 0.828125 -0.515625 1.328125q-0.515625 0.5 -1.359375 0.5l-22.09375 0l0 -3.328125l22.515625 0l-2.234375 1.609375q0.046875 -3.015625 -1.09375 -5.40625q-1.140625 -2.390625 -3.25 -3.734375q-2.109375 -1.359375 -5.015625 -1.359375q-2.96875 0 -5.203125 1.40625q-2.234375 1.390625 -3.453125 3.859375q-1.21875 2.46875 -1.21875 5.640625q0 3.171875 1.375 5.625q1.375 2.4375 3.765625 3.84375q2.390625 1.40625 5.515625 1.40625q1.875 0 3.765625 -0.640625q1.90625 -0.65625 3.046875 -1.640625q0.5625 -0.46875 1.296875 -0.5q0.734375 -0.03125 1.25 0.390625q0.671875 0.625 0.6875 1.359375q0.03125 0.71875 -0.578125 1.234375q-1.71875 1.46875 -4.375 2.4375q-2.65625 0.953125 -5.09375 0.953125z" fill-rule="nonzero"/><path fill="#bf9000" d="m53.74002 215.78772q-5.671875 0 -9.40625 -3.484375q-0.625 -0.53125 -0.546875 -1.25q0.078125 -0.734375 0.75 -1.296875q0.515625 -0.46875 1.21875 -0.421875q0.703125 0.046875 1.328125 0.578125q1.25 1.140625 2.9375 1.6875q1.6875 0.546875 3.71875 0.546875q3.0625 0 5.375 -1.40625q2.3125 -1.40625 3.609375 -3.84375q1.3125 -2.453125 1.3125 -5.578125q0 -3.171875 -1.234375 -5.609375q-1.21875 -2.4375 -3.40625 -3.84375q-2.171875 -1.40625 -5.078125 -1.40625q-4.578125 0 -7.59375 3.4375q-0.578125 0.609375 -1.28125 0.75q-0.703125 0.125 -1.265625 -0.28125q-0.734375 -0.53125 -0.875 -1.234375q-0.125 -0.703125 0.40625 -1.328125q2.015625 -2.484375 4.6875 -3.734375q2.6875 -1.25 5.921875 -1.25q3.9375 0 7.03125 1.90625q3.109375 1.890625 4.84375 5.171875q1.734375 3.265625 1.734375 7.421875q0 4.109375 -1.8125 7.390625q-1.8125 3.28125 -5.046875 5.1875q-3.21875 1.890625 -7.328125 1.890625zm-1.671875 -13.109375q-0.828125 0 -1.328125 -0.4375q-0.484375 -0.453125 -0.484375 -1.171875q0 -0.734375 0.484375 -1.171875q0.5 -0.4375 1.328125 -0.4375l12.640625 0q0.828125 0 1.328125 0.4375q0.5 0.4375 0.5 1.171875q0 0.71875 -0.5 1.171875q-0.5 0.4375 -1.328125 0.4375l-12.640625 0zm34.32016 -15.59375q0.625 0 1.140625 0.3125q0.53125 0.3125 0.84375 1.03125l11.28125 24.546875q0.359375 0.734375 0.078125 1.390625q-0.28125 0.640625 -1.015625 1.0q-0.828125 0.359375 -1.515625 0.125q-0.671875 -0.234375 -1.078125 -1.015625l-10.765625 -23.96875l2.34375 0l-10.984375 23.921875q-0.359375 0.78125 -1.109375 1.015625q-0.75 0.234375 -1.53125 -0.125q-0.734375 -0.375 -1.03125 -1.015625q-0.28125 -0.65625 0.03125 -1.375l11.453125 -24.5q0.625 -1.34375 1.859375 -1.34375zm32.87291 28.703125q-4.21875 0 -7.46875 -1.84375q-3.25 -1.859375 -5.09375 -5.125q-1.84375 -3.28125 -1.84375 -7.5q0 -4.25 1.734375 -7.5q1.75 -3.25 4.8125 -5.125q3.078125 -1.875 7.078125 -1.875q3.953125 0 6.890625 1.796875q2.9375 1.796875 4.546875 4.96875q1.609375 3.171875 1.609375 7.21875q0 0.828125 -0.515625 1.328125q-0.515625 0.5 -1.359375 0.5l-22.09375 0l0 -3.328125l22.515625 0l-2.234375 1.609375q0.046875 -3.015625 -1.09375 -5.40625q-1.140625 -2.390625 -3.25 -3.734375q-2.109375 -1.359375 -5.015625 -1.359375q-2.96875 0 -5.203125 1.40625q-2.234375 1.390625 -3.453125 3.859375q-1.21875 2.46875 -1.21875 5.640625q0 3.171875 1.375 5.625q1.375 2.4375 3.765625 3.84375q2.390625 1.40625 5.515625 1.40625q1.875 0 3.765625 -0.640625q1.90625 -0.65625 3.046875 -1.640625q0.5625 -0.46875 1.296875 -0.5q0.734375 -0.03125 1.25 0.390625q0.671875 0.625 0.6875 1.359375q0.03125 0.71875 -0.578125 1.234375q-1.71875 1.46875 -4.375 2.4375q-2.65625 0.953125 -5.09375 0.953125zm21.053024 -0.265625q-0.9375 0 -1.484375 -0.546875q-0.53125 -0.546875 -0.53125 -1.484375l0 -24.390625q0 -0.9375 0.53125 -1.46875q0.546875 -0.546875 1.484375 -0.546875q1.359375 0 2.1875 1.234375l11.5 16.640625l11.484375 -16.640625q0.828125 -1.234375 2.1875 -1.234375q0.9375 0 1.484375 0.546875q0.546875 0.53125 0.546875 1.46875l0 24.390625q0 0.9375 -0.546875 1.484375q-0.546875 0.546875 -1.484375 0.546875q-0.9375 0 -1.46875 -0.546875q-0.515625 -0.546875 -0.515625 -1.484375l0 -21.78125l1.3125 0.40625l-11.140625 16.078125q-0.828125 1.1875 -1.921875 1.1875q-1.09375 0 -1.875 -1.1875l-11.125 -15.921875l1.359375 -0.40625l0 21.625q0 0.9375 -0.53125 1.484375q-0.515625 0.546875 -1.453125 0.546875zm51.643036 0.265625q-4.21875 0 -7.46875 -1.84375q-3.25 -1.859375 -5.09375 -5.125q-1.84375 -3.28125 -1.84375 -7.5q0 -4.25 1.734375 -7.5q1.75 -3.25 4.8125 -5.125q3.078125 -1.875 7.078125 -1.875q3.953125 0 6.890625 1.796875q2.9375 1.796875 4.546875 4.96875q1.609375 3.171875 1.609375 7.21875q0 0.828125 -0.515625 1.328125q-0.515625 0.5 -1.359375 0.5l-22.09375 0l0 -3.328125l22.515625 0l-2.234375 1.609375q0.046875 -3.015625 -1.09375 -5.40625q-1.140625 -2.390625 -3.25 -3.734375q-2.109375 -1.359375 -5.015625 -1.359375q-2.96875 0 -5.203125 1.40625q-2.234375 1.390625 -3.453125 3.859375q-1.21875 2.46875 -1.21875 5.640625q0 3.171875 1.375 5.625q1.375 2.4375 3.765625 3.84375q2.390625 1.40625 5.515625 1.40625q1.875 0 3.765625 -0.640625q1.90625 -0.65625 3.046875 -1.640625q0.5625 -0.46875 1.296875 -0.5q0.734375 -0.03125 1.25 0.390625q0.671875 0.625 0.6875 1.359375q0.03125 0.71875 -0.578125 1.234375q-1.71875 1.46875 -4.375 2.4375q-2.65625 0.953125 -5.09375 0.953125zm43.365524 -0.265625q-0.890625 0 -1.46875 -0.546875q-0.5625 -0.546875 -0.5625 -1.484375l0 -24.390625q0 -0.9375 0.5625 -1.46875q0.578125 -0.546875 1.46875 -0.546875q0.890625 0 1.40625 0.546875q0.515625 0.53125 0.515625 1.46875l0 24.390625q0 0.9375 -0.515625 1.484375q-0.515625 0.546875 -1.40625 0.546875zm-22.359375 0q-0.890625 0 -1.4375 -0.546875q-0.53125 -0.546875 -0.53125 -1.484375l0 -24.390625q0 -0.9375 0.53125 -1.46875q0.546875 -0.546875 1.4375 -0.546875q0.890625 0 1.421875 0.546875q0.546875 0.53125 0.546875 1.46875l0 24.390625q0 0.9375 -0.546875 1.484375q-0.53125 0.546875 -1.421875 0.546875zm1.296875 -12.53125l0 -3.59375l20.4375 0l0 3.59375l-20.4375 0zm70.77626 12.53125q-0.890625 0 -1.46875 -0.546875q-0.5625 -0.546875 -0.5625 -1.421875l0 -14.984375q0 -3.6875 -1.921875 -5.84375q-1.921875 -2.15625 -4.9375 -2.15625q-3.234375 0 -5.28125 2.15625q-2.046875 2.15625 -2.0 5.734375l-3.59375 0q0.0625 -3.484375 1.515625 -6.125q1.453125 -2.65625 4.0 -4.109375q2.546875 -1.453125 5.765625 -1.453125q3.078125 0 5.4375 1.453125q2.375 1.453125 3.6875 4.109375q1.328125 2.640625 1.328125 6.234375l0 14.984375q0 0.875 -0.546875 1.421875q-0.546875 0.546875 -1.421875 0.546875zm-36.406235 0q-0.9375 0 -1.484375 -0.546875q-0.53125 -0.546875 -0.53125 -1.421875l0 -24.453125q0 -0.875 0.53125 -1.4375q0.546875 -0.578125 1.484375 -0.578125q0.890625 0 1.4375 0.578125q0.546875 0.5625 0.546875 1.4375l0 24.453125q0 0.875 -0.546875 1.421875q-0.546875 0.546875 -1.4375 0.546875zm18.249985 0q-0.875 0 -1.453125 -0.546875q-0.5625 -0.546875 -0.5625 -1.421875l0 -14.984375q0 -3.6875 -1.9375 -5.84375q-1.921875 -2.15625 -4.9375 -2.15625q-3.2187347 0 -5.2968597 2.109375q-2.078125 2.09375 -2.078125 5.46875l-2.859375 0q0.09375 -3.328125 1.46875 -5.890625q1.390625 -2.578125 3.78125 -4.03125q2.390625 -1.453125 5.4062347 -1.453125q3.0625 0 5.421875 1.453125q2.375 1.453125 3.703125 4.109375q1.328125 2.640625 1.328125 6.234375l0 14.984375q0 0.875 -0.546875 1.421875q-0.546875 0.546875 -1.4375 0.546875zm46.230072 0q-0.9375 0 -1.484375 -0.546875q-0.53125 -0.546875 -0.53125 -1.484375l0 -24.4375q0.046875 -0.890625 0.59375 -1.421875q0.546875 -0.546875 1.421875 -0.546875q0.890625 0 1.4375 0.546875q0.546875 0.53125 0.546875 1.46875l0 9.890625l10.96875 0l0 0.71875q2.703125 0 4.8125 1.0q2.109375 0.984375 3.265625 2.734375q1.171875 1.734375 1.171875 3.96875q0 2.390625 -1.171875 4.21875q-1.15625 1.8125 -3.265625 2.859375q-2.109375 1.03125 -4.8125 1.03125l-12.953125 0zm1.984375 -3.6875l10.96875 0q2.34375 0 3.84375 -1.1875q1.515625 -1.203125 1.515625 -3.4375q0 -2.34375 -1.515625 -3.5625q-1.5 -1.234375 -3.84375 -1.234375l-10.96875 0l0 9.421875zm5.828125 -10.609375l0 -2.234375l5.140625 0q1.8125 0 2.953125 -1.1875q1.15625 -1.203125 1.15625 -3.078125q0 -1.671875 -1.234375 -2.828125q-1.21875 -1.171875 -3.078125 -1.171875l-12.6875 0l0 -3.640625l12.6875 0q2.390625 0 4.234375 0.96875q1.84375 0.953125 2.90625 2.625q1.0625 1.65625 1.0625 3.828125q0 3.390625 -2.265625 5.0625q-2.25 1.65625 -5.734375 1.65625l-5.140625 0zm45.389404 14.5625q-5.671875 0 -9.40625 -3.484375q-0.625 -0.53125 -0.546875 -1.25q0.078125 -0.734375 0.75 -1.296875q0.515625 -0.46875 1.21875 -0.421875q0.703125 0.046875 1.328125 0.578125q1.25 1.140625 2.9375 1.6875q1.6875 0.546875 3.71875 0.546875q3.0625 0 5.375 -1.40625q2.3125 -1.40625 3.609375 -3.84375q1.3125 -2.453125 1.3125 -5.578125q0 -3.171875 -1.234375 -5.609375q-1.21875 -2.4375 -3.40625 -3.84375q-2.171875 -1.40625 -5.078125 -1.40625q-4.578125 0 -7.59375 3.4375q-0.578125 0.609375 -1.28125 0.75q-0.703125 0.125 -1.265625 -0.28125q-0.734375 -0.53125 -0.875 -1.234375q-0.125 -0.703125 0.40625 -1.328125q2.015625 -2.484375 4.6875 -3.734375q2.6875 -1.25 5.921875 -1.25q3.9375 0 7.03125 1.90625q3.109375 1.890625 4.84375 5.171875q1.734375 3.265625 1.734375 7.421875q0 4.109375 -1.8125 7.390625q-1.8125 3.28125 -5.046875 5.1875q-3.21875 1.890625 -7.328125 1.890625zm-1.671875 -13.109375q-0.828125 0 -1.328125 -0.4375q-0.484375 -0.453125 -0.484375 -1.171875q0 -0.734375 0.484375 -1.171875q0.5 -0.4375 1.328125 -0.4375l12.640625 0q0.828125 0 1.328125 0.4375q0.5 0.4375 0.5 1.171875q0 0.71875 -0.5 1.171875q-0.5 0.4375 -1.328125 0.4375l-12.640625 0zm62.148285 12.84375q-0.890625 0 -1.46875 -0.546875q-0.5625 -0.546875 -0.5625 -1.421875l0 -14.984375q0 -3.6875 -1.921875 -5.84375q-1.921875 -2.15625 -4.9375 -2.15625q-3.234375 0 -5.28125 2.15625q-2.046875 2.15625 -2.0 5.734375l-3.59375 0q0.0625 -3.484375 1.515625 -6.125q1.453125 -2.65625 4.0 -4.109375q2.546875 -1.453125 5.765625 -1.453125q3.078125 0 5.4375 1.453125q2.375 1.453125 3.6875 4.109375q1.328125 2.640625 1.328125 6.234375l0 14.984375q0 0.875 -0.546875 1.421875q-0.546875 0.546875 -1.421875 0.546875zm-36.40625 0q-0.9375 0 -1.484375 -0.546875q-0.53125 -0.546875 -0.53125 -1.421875l0 -24.453125q0 -0.875 0.53125 -1.4375q0.546875 -0.578125 1.484375 -0.578125q0.890625 0 1.4375 0.578125q0.546875 0.5625 0.546875 1.4375l0 24.453125q0 0.875 -0.546875 1.421875q-0.546875 0.546875 -1.4375 0.546875zm18.25 0q-0.875 0 -1.453125 -0.546875q-0.5625 -0.546875 -0.5625 -1.421875l0 -14.984375q0 -3.6875 -1.9375 -5.84375q-1.921875 -2.15625 -4.9375 -2.15625q-3.21875 0 -5.296875 2.109375q-2.078125 2.09375 -2.078125 5.46875l-2.859375 0q0.09375 -3.328125 1.46875 -5.890625q1.390625 -2.578125 3.78125 -4.03125q2.390625 -1.453125 5.40625 -1.453125q3.0625 0 5.421875 1.453125q2.375 1.453125 3.703125 4.109375q1.328125 2.640625 1.328125 6.234375l0 14.984375q0 0.875 -0.546875 1.421875q-0.546875 0.546875 -1.4375 0.546875zm27.199677 12.421875q-1.140625 0.0625 -2.265625 -0.28125q-1.109375 -0.34375 -2.203125 -0.953125q-0.828125 -0.53125 -1.0625 -1.34375q-0.234375 -0.796875 0.328125 -1.53125q0.53125 -0.671875 1.28125 -0.703125q0.75 -0.015625 1.578125 0.40625q0.578125 0.359375 1.140625 0.515625q0.578125 0.15625 1.3125 0.15625q1.71875 -0.0625 3.296875 -1.625q1.59375 -1.546875 2.890625 -4.515625l12.953125 -29.90625q0.3125 -0.765625 1.0625 -1.046875q0.75 -0.296875 1.53125 0.0625q0.734375 0.3125 0.96875 1.046875q0.234375 0.71875 -0.140625 1.5625l-13.0 29.84375q-1.65625 3.75 -4.1875 6.03125q-2.515625 2.28125 -5.484375 2.28125zm10.875 -13.3125q-0.78125 0.375 -1.46875 0.140625q-0.671875 -0.234375 -1.078125 -1.015625l-11.59375 -24.03125q-0.375 -0.78125 -0.109375 -1.453125q0.265625 -0.671875 1.03125 -1.03125q0.78125 -0.375 1.453125 -0.140625q0.6875 0.234375 1.046875 1.015625l11.4375 23.921875q0.375 0.78125 0.21875 1.515625q-0.15625 0.71875 -0.9375 1.078125z" fill-rule="nonzero"/><path fill="#bf9000" d="m70.74002 278.1877q-4.15625 0 -7.4375 -1.875q-3.265625 -1.875 -5.140625 -5.140625q-1.875 -3.28125 -1.875 -7.453125q0 -4.203125 1.875 -7.46875q1.875 -3.28125 5.140625 -5.15625q3.28125 -1.875 7.4375 -1.875q4.15625 0 7.40625 1.875q3.25 1.875 5.125 5.15625q1.875 3.265625 1.921875 7.46875q0 4.171875 -1.90625 7.453125q-1.890625 3.265625 -5.140625 5.140625q-3.25 1.875 -7.40625 1.875zm0 -3.640625q3.015625 0 5.40625 -1.40625q2.390625 -1.40625 3.734375 -3.84375q1.359375 -2.453125 1.359375 -5.578125q0 -3.109375 -1.359375 -5.578125q-1.34375 -2.46875 -3.734375 -3.875q-2.390625 -1.40625 -5.40625 -1.40625q-3.015625 0 -5.40625 1.40625q-2.390625 1.40625 -3.765625 3.875q-1.375 2.46875 -1.375 5.578125q0 3.125 1.375 5.578125q1.375 2.4375 3.765625 3.84375q2.390625 1.40625 5.40625 1.40625zm35.0009 3.640625q-4.109375 0 -7.28125 -1.875q-3.171875 -1.875 -4.96875 -5.171875q-1.796875 -3.3125 -1.796875 -7.578125l2.140625 0q0 -3.6875 1.578125 -6.515625q1.59375 -2.84375 4.375 -4.453125q2.78125 -1.609375 6.375 -1.609375q3.890625 0 6.921875 1.71875q3.046875 1.71875 4.765625 4.78125q1.71875 3.0625 1.71875 7.015625q0 4.015625 -1.765625 7.109375q-1.765625 3.09375 -4.890625 4.84375q-3.125 1.734375 -7.171875 1.734375zm0 -3.640625q2.90625 0 5.140625 -1.265625q2.234375 -1.28125 3.515625 -3.546875q1.28125 -2.265625 1.28125 -5.234375q0 -2.90625 -1.28125 -5.140625q-1.28125 -2.234375 -3.515625 -3.484375q-2.234375 -1.25 -5.140625 -1.25q-2.96875 0 -5.265625 1.25q-2.28125 1.25 -3.5625 3.484375q-1.265625 2.234375 -1.265625 5.140625q0 2.96875 1.265625 5.234375q1.28125 2.265625 3.5625 3.546875q2.296875 1.265625 5.265625 1.265625zm-14.046875 -10.828125l0 -4.25q0.0625 -6.921875 3.703125 -12.40625q3.640625 -5.484375 11.328125 -8.453125l7.640625 -3.015625q0.84375 -0.3125 1.453125 -0.046875q0.625 0.25 0.9375 1.03125q0.265625 0.828125 0.03125 1.453125q-0.234375 0.625 -1.21875 1.0l-8.109375 3.328125q-4.578125 1.765625 -7.359375 4.46875q-2.78125 2.703125 -4.03125 6.0625q-1.25 3.34375 -1.25 7.09375l0.046875 3.734375l-3.171875 0zm46.278275 -14.234375q0.625 0 1.140625 0.3125q0.53125 0.3125 0.84375 1.03125l11.28125 24.546875q0.359375 0.734375 0.078125 1.390625q-0.28125 0.640625 -1.015625 1.0q-0.828125 0.359375 -1.515625 0.125q-0.671875 -0.234375 -1.078125 -1.015625l-10.765625 -23.96875l2.34375 0l-10.984375 23.921875q-0.359375 0.78125 -1.109375 1.015625q-0.75 0.234375 -1.53125 -0.125q-0.734375 -0.375 -1.03125 -1.015625q-0.28125 -0.65625 0.03125 -1.375l11.453125 -24.5q0.625 -1.34375 1.859375 -1.34375zm32.513535 28.703125q-4.015625 0 -7.1875 -1.890625q-3.171875 -1.90625 -5.015625 -5.1875q-1.84375 -3.28125 -1.84375 -7.390625q0 -4.15625 1.890625 -7.421875q1.90625 -3.28125 5.171875 -5.171875q3.28125 -1.90625 7.390625 -1.90625q4.109375 0 7.359375 1.90625q3.25 1.890625 5.140625 5.171875q1.90625 3.265625 1.953125 7.421875l-1.609375 1.25q0 3.75 -1.75 6.75q-1.734375 2.984375 -4.71875 4.734375q-2.984375 1.734375 -6.78125 1.734375zm0.40625 -3.640625q3.015625 0 5.375 -1.40625q2.375 -1.40625 3.75 -3.875q1.375 -2.46875 1.375 -5.546875q0 -3.109375 -1.375 -5.546875q-1.375 -2.453125 -3.75 -3.875q-2.359375 -1.4375 -5.375 -1.4375q-2.96875 0 -5.359375 1.4375q-2.390625 1.421875 -3.796875 3.875q-1.390625 2.4375 -1.390625 5.546875q0 3.078125 1.390625 5.546875q1.40625 2.46875 3.796875 3.875q2.390625 1.40625 5.359375 1.40625zm12.4375 3.375q-0.890625 0 -1.46875 -0.546875q-0.5625 -0.546875 -0.5625 -1.421875l0 -8.90625l0.984375 -4.09375l3.0625 0.765625l0 12.234375q0 0.875 -0.578125 1.421875q-0.5625 0.546875 -1.4375 0.546875zm22.516525 0.265625q-4.109375 0 -7.3125 -1.890625q-3.203125 -1.90625 -5.046875 -5.1875q-1.84375 -3.28125 -1.84375 -7.390625q0 -4.15625 1.765625 -7.421875q1.765625 -3.28125 4.828125 -5.171875q3.078125 -1.90625 7.078125 -1.90625q3.171875 0 5.84375 1.25q2.6875 1.25 4.71875 3.734375q0.5625 0.625 0.40625 1.328125q-0.15625 0.703125 -0.875 1.234375q-0.578125 0.40625 -1.28125 0.28125q-0.703125 -0.140625 -1.21875 -0.75q-3.015625 -3.4375 -7.59375 -3.4375q-2.90625 0 -5.125 1.40625q-2.203125 1.40625 -3.421875 3.84375q-1.21875 2.4375 -1.21875 5.609375q0 3.125 1.296875 5.578125q1.296875 2.4375 3.640625 3.84375q2.34375 1.40625 5.359375 1.40625q2.015625 0 3.703125 -0.546875q1.703125 -0.546875 3.0 -1.6875q0.625 -0.53125 1.296875 -0.578125q0.671875 -0.046875 1.25 0.421875q0.625 0.5625 0.703125 1.296875q0.078125 0.71875 -0.5 1.25q-3.796875 3.484375 -9.453125 3.484375zm56.674408 -0.265625q-0.890625 0 -1.46875 -0.546875q-0.5625 -0.546875 -0.5625 -1.421875l0 -14.984375q0 -3.6875 -1.921875 -5.84375q-1.921875 -2.15625 -4.9375 -2.15625q-3.234375 0 -5.28125 2.15625q-2.046875 2.15625 -2.0 5.734375l-3.59375 0q0.0625 -3.484375 1.515625 -6.125q1.453125 -2.65625 4.0 -4.109375q2.546875 -1.453125 5.765625 -1.453125q3.078125 0 5.4375 1.453125q2.375 1.453125 3.6875 4.109375q1.328125 2.640625 1.328125 6.234375l0 14.984375q0 0.875 -0.546875 1.421875q-0.546875 0.546875 -1.421875 0.546875zm-36.40625 0q-0.9375 0 -1.484375 -0.546875q-0.53125 -0.546875 -0.53125 -1.421875l0 -24.453125q0 -0.875 0.53125 -1.4375q0.546875 -0.578125 1.484375 -0.578125q0.890625 0 1.4375 0.578125q0.546875 0.5625 0.546875 1.4375l0 24.453125q0 0.875 -0.546875 1.421875q-0.546875 0.546875 -1.4375 0.546875zm18.25 0q-0.875 0 -1.453125 -0.546875q-0.5625 -0.546875 -0.5625 -1.421875l0 -14.984375q0 -3.6875 -1.9375 -5.84375q-1.921875 -2.15625 -4.9375 -2.15625q-3.21875 0 -5.296875 2.109375q-2.078125 2.09375 -2.078125 5.46875l-2.859375 0q0.09375 -3.328125 1.46875 -5.890625q1.390625 -2.578125 3.78125 -4.03125q2.390625 -1.453125 5.40625 -1.453125q3.0625 0 5.421875 1.453125q2.375 1.453125 3.703125 4.109375q1.328125 2.640625 1.328125 6.234375l0 14.984375q0 0.875 -0.546875 1.421875q-0.546875 0.546875 -1.4375 0.546875zm41.040924 0.515625q-3.59375 0 -6.296875 -1.34375q-2.703125 -1.359375 -4.234375 -3.71875q-1.53125 -2.375 -1.53125 -5.546875l0 -16.375q0.046875 -0.890625 0.609375 -1.421875q0.578125 -0.546875 1.40625 -0.546875q0.84375 0 1.40625 0.578125q0.578125 0.5625 0.578125 1.4375l0 7.390625l8.46875 0q3.390625 0 5.953125 1.203125q2.578125 1.1875 4.0 3.375q1.4375 2.1875 1.4375 5.046875q0 2.859375 -1.484375 5.125q-1.484375 2.25 -4.140625 3.53125q-2.640625 1.265625 -6.171875 1.265625zm0 -3.6875q3.375 0 5.609375 -1.5625q2.234375 -1.5625 2.234375 -4.671875q0 -2.921875 -1.984375 -4.53125q-1.96875 -1.609375 -5.453125 -1.609375l-8.46875 0l0 5.453125q0 1.984375 1.015625 3.578125q1.015625 1.578125 2.796875 2.46875q1.796875 0.875 4.25 0.875zm18.0448 11.59375q-0.53125 0 -0.8125 -0.28125q-0.28125 -0.28125 -0.28125 -0.75q0 -0.78125 0.46875 -1.4375q0.46875 -0.65625 0.953125 -1.390625q0.5 -0.71875 0.5 -1.75q0 -0.9375 -0.375 -1.5625q-0.359375 -0.625 -0.859375 -1.125q-0.484375 -0.484375 -0.859375 -1.078125q-0.359375 -0.609375 -0.359375 -1.484375q0 -1.3125 0.859375 -2.078125q0.859375 -0.78125 2.15625 -0.78125q1.5625 0 2.546875 1.21875q1.0 1.21875 1.0 3.40625q0 1.453125 -0.421875 3.0625q-0.421875 1.609375 -1.15625 2.984375q-0.71875 1.390625 -1.609375 2.21875q-0.875 0.828125 -1.75 0.828125zm39.831757 -8.109375q-3.703125 0 -6.609375 -1.53125q-2.90625 -1.53125 -4.609375 -4.5q-1.6875 -2.96875 -1.6875 -7.234375l0 -13.515625q0 -0.828125 0.5625 -1.390625q0.578125 -0.578125 1.421875 -0.578125q0.875 0 1.4375 0.578125q0.578125 0.5625 0.578125 1.390625l0 13.515625q0 3.234375 1.21875 5.3125q1.234375 2.078125 3.328125 3.125q2.109375 1.03125 4.765625 1.03125q2.546875 0 4.59375 -0.984375q2.0625 -0.984375 3.25 -2.703125q1.203125 -1.71875 1.203125 -3.90625l2.859375 0q-0.15625 3.28125 -1.796875 5.859375q-1.625 2.5625 -4.390625 4.046875q-2.75 1.484375 -6.125 1.484375zm11.4375 -0.3125q-0.890625 0 -1.4375 -0.546875q-0.546875 -0.546875 -0.546875 -1.484375l0 -24.4375q0 -0.890625 0.546875 -1.421875q0.546875 -0.546875 1.4375 -0.546875q0.875 0 1.453125 0.546875q0.578125 0.53125 0.578125 1.421875l0 24.4375q0 0.9375 -0.578125 1.484375q-0.578125 0.546875 -1.453125 0.546875zm39.565063 0.265625q-4.15625 0 -7.4375 -1.875q-3.265625 -1.875 -5.140625 -5.140625q-1.875 -3.28125 -1.875 -7.453125q0 -4.203125 1.875 -7.46875q1.875 -3.28125 5.140625 -5.15625q3.28125 -1.875 7.4375 -1.875q4.15625 0 7.40625 1.875q3.25 1.875 5.125 5.15625q1.875 3.265625 1.921875 7.46875q0 4.171875 -1.90625 7.453125q-1.890625 3.265625 -5.140625 5.140625q-3.25 1.875 -7.40625 1.875zm0 -3.640625q3.015625 0 5.40625 -1.40625q2.390625 -1.40625 3.734375 -3.84375q1.359375 -2.453125 1.359375 -5.578125q0 -3.109375 -1.359375 -5.578125q-1.34375 -2.46875 -3.734375 -3.875q-2.390625 -1.40625 -5.40625 -1.40625q-3.015625 0 -5.40625 1.40625q-2.390625 1.40625 -3.765625 3.875q-1.375 2.46875 -1.375 5.578125q0 3.125 1.375 5.578125q1.375 2.4375 3.765625 3.84375q2.390625 1.40625 5.40625 1.40625zm46.594666 3.375q-0.890625 0 -1.46875 -0.546875q-0.5625 -0.546875 -0.5625 -1.484375l0 -24.390625q0 -0.9375 0.5625 -1.46875q0.578125 -0.546875 1.46875 -0.546875q0.890625 0 1.40625 0.546875q0.515625 0.53125 0.515625 1.46875l0 24.390625q0 0.9375 -0.515625 1.484375q-0.515625 0.546875 -1.40625 0.546875zm-22.359375 0q-0.890625 0 -1.4375 -0.546875q-0.53125 -0.546875 -0.53125 -1.484375l0 -24.390625q0 -0.9375 0.53125 -1.46875q0.546875 -0.546875 1.4375 -0.546875q0.890625 0 1.421875 0.546875q0.546875 0.53125 0.546875 1.46875l0 24.390625q0 0.9375 -0.546875 1.484375q-0.53125 0.546875 -1.421875 0.546875zm1.296875 -12.53125l0 -3.59375l20.4375 0l0 3.59375l-20.4375 0z" fill-rule="nonzero"/><path fill="#bf9000" d="m32.73291 340.5877q-4.109375 0 -7.28125 -1.875q-3.171875 -1.875 -4.96875 -5.171875q-1.796875 -3.3125 -1.796875 -7.578125l2.140625 0q0 -3.6875 1.578125 -6.515625q1.59375 -2.84375 4.375 -4.453125q2.78125 -1.609375 6.375 -1.609375q3.890625 0 6.921875 1.71875q3.046875 1.71875 4.765625 4.78125q1.71875 3.0625 1.71875 7.015625q0 4.015625 -1.765625 7.109375q-1.765625 3.09375 -4.890625 4.84375q-3.125 1.734375 -7.171875 1.734375zm0 -3.640625q2.90625 0 5.140625 -1.265625q2.234375 -1.28125 3.515625 -3.546875q1.28125 -2.265625 1.28125 -5.234375q0 -2.90625 -1.28125 -5.140625q-1.28125 -2.234375 -3.515625 -3.484375q-2.234375 -1.25 -5.140625 -1.25q-2.96875 0 -5.265625 1.25q-2.28125 1.25 -3.5625 3.484375q-1.265625 2.234375 -1.265625 5.140625q0 2.96875 1.265625 5.234375q1.28125 2.265625 3.5625 3.546875q2.296875 1.265625 5.265625 1.265625zm-14.046875 -10.828125l0 -4.25q0.0625 -6.921875 3.703125 -12.40625q3.640625 -5.484375 11.328125 -8.453125l7.640625 -3.015625q0.84375 -0.3125 1.453125 -0.046875q0.625 0.25 0.9375 1.03125q0.265625 0.828125 0.03125 1.453125q-0.234375 0.625 -1.21875 1.0l-8.109375 3.328125q-4.578125 1.765625 -7.359375 4.46875q-2.78125 2.703125 -4.03125 6.0625q-1.25 3.34375 -1.25 7.09375l0.046875 3.734375l-3.171875 0zm33.905777 26.625q-1.140625 0.0625 -2.265625 -0.28125q-1.109375 -0.34375 -2.203125 -0.953125q-0.828125 -0.53125 -1.0625 -1.34375q-0.234375 -0.796875 0.328125 -1.53125q0.53125 -0.671875 1.28125 -0.703125q0.75 -0.015625 1.578125 0.40625q0.578125 0.359375 1.140625 0.515625q0.578125 0.15625 1.3125 0.15625q1.71875 -0.0625 3.296875 -1.625q1.59375 -1.546875 2.890625 -4.515625l12.953125 -29.90625q0.3125 -0.765625 1.0625 -1.046875q0.75 -0.296875 1.53125 0.0625q0.734375 0.3125 0.96875 1.046875q0.234375 0.71875 -0.140625 1.5625l-13.0 29.84375q-1.65625 3.75 -4.1875 6.03125q-2.515625 2.28125 -5.484375 2.28125zm10.875 -13.3125q-0.78125 0.375 -1.46875 0.140625q-0.671875 -0.234375 -1.078125 -1.015625l-11.59375 -24.03125q-0.375 -0.78125 -0.109375 -1.453125q0.265625 -0.671875 1.03125 -1.03125q0.78125 -0.375 1.453125 -0.140625q0.6875 0.234375 1.046875 1.015625l11.4375 23.921875q0.375 0.78125 0.21875 1.515625q-0.15625 0.71875 -0.9375 1.078125zm29.955032 1.15625q-4.109375 0 -7.28125 -1.84375q-3.171875 -1.859375 -4.96875 -5.125q-1.796875 -3.28125 -1.796875 -7.5q0 -4.25 1.875 -7.53125q1.875 -3.28125 5.140625 -5.125q3.28125 -1.84375 7.4375 -1.84375q4.21875 0 7.46875 1.84375q3.25 1.84375 5.09375 5.125q1.84375 3.28125 1.890625 7.53125l-2.328125 1.25q0 3.859375 -1.625 6.84375q-1.609375 2.984375 -4.4375 4.6875q-2.828125 1.6875 -6.46875 1.6875zm0.515625 10.96875q-4.109375 0 -7.234375 -1.546875q-3.109375 -1.53125 -5.140625 -4.171875q-0.578125 -0.625 -0.5 -1.359375q0.078125 -0.71875 0.75 -1.1875q0.6875 -0.46875 1.515625 -0.3125q0.828125 0.15625 1.296875 0.78125q1.515625 1.859375 3.875 3.0q2.359375 1.15625 5.484375 1.15625q2.921875 0 5.25 -1.40625q2.34375 -1.40625 3.71875 -3.953125q1.375 -2.546875 1.375 -5.984375l0 -7.890625l1.515625 -3.015625l2.4375 0.453125l0 10.609375q0 4.21875 -1.875 7.5625q-1.859375 3.359375 -5.09375 5.3125q-3.21875 1.953125 -7.375 1.953125zm-0.109375 -14.609375q3.078125 0 5.4375 -1.375q2.359375 -1.390625 3.703125 -3.828125q1.359375 -2.453125 1.359375 -5.625q0 -3.171875 -1.359375 -5.640625q-1.34375 -2.46875 -3.703125 -3.84375q-2.359375 -1.375 -5.4375 -1.375q-3.0625 0 -5.453125 1.375q-2.390625 1.375 -3.75 3.84375q-1.34375 2.46875 -1.34375 5.640625q0 3.171875 1.34375 5.625q1.359375 2.4375 3.75 3.828125q2.390625 1.375 5.453125 1.375zm35.15715 3.640625q-4.21875 0 -7.46875 -1.84375q-3.25 -1.859375 -5.09375 -5.125q-1.84375 -3.28125 -1.84375 -7.5q0 -4.25 1.734375 -7.5q1.75 -3.25 4.8125 -5.125q3.078125 -1.875 7.078125 -1.875q3.953125 0 6.890625 1.796875q2.9375 1.796875 4.546875 4.96875q1.609375 3.171875 1.609375 7.21875q0 0.828125 -0.515625 1.328125q-0.515625 0.5 -1.359375 0.5l-22.09375 0l0 -3.328125l22.515625 0l-2.234375 1.609375q0.046875 -3.015625 -1.09375 -5.40625q-1.140625 -2.390625 -3.25 -3.734375q-2.109375 -1.359375 -5.015625 -1.359375q-2.96875 0 -5.203125 1.40625q-2.234375 1.390625 -3.453125 3.859375q-1.21875 2.46875 -1.21875 5.640625q0 3.171875 1.375 5.625q1.375 2.4375 3.765625 3.84375q2.390625 1.40625 5.515625 1.40625q1.875 0 3.765625 -0.640625q1.90625 -0.65625 3.046875 -1.640625q0.5625 -0.46875 1.296875 -0.5q0.734375 -0.03125 1.25 0.390625q0.671875 0.625 0.6875 1.359375q0.03125 0.71875 -0.578125 1.234375q-1.71875 1.46875 -4.375 2.4375q-2.65625 0.953125 -5.09375 0.953125zm57.459274 -0.265625q-0.890625 0 -1.46875 -0.546875q-0.5625 -0.546875 -0.5625 -1.421875l0 -14.984375q0 -3.6875 -1.921875 -5.84375q-1.921875 -2.15625 -4.9375 -2.15625q-3.234375 0 -5.28125 2.15625q-2.046875 2.15625 -2.0 5.734375l-3.59375 0q0.0625 -3.484375 1.515625 -6.125q1.453125 -2.65625 4.0 -4.109375q2.546875 -1.453125 5.765625 -1.453125q3.078125 0 5.4375 1.453125q2.375 1.453125 3.6875 4.109375q1.328125 2.640625 1.328125 6.234375l0 14.984375q0 0.875 -0.546875 1.421875q-0.546875 0.546875 -1.421875 0.546875zm-36.40625 0q-0.9375 0 -1.484375 -0.546875q-0.53125 -0.546875 -0.53125 -1.421875l0 -24.453125q0 -0.875 0.53125 -1.4375q0.546875 -0.578125 1.484375 -0.578125q0.890625 0 1.4375 0.578125q0.546875 0.5625 0.546875 1.4375l0 24.453125q0 0.875 -0.546875 1.421875q-0.546875 0.546875 -1.4375 0.546875zm18.25 0q-0.875 0 -1.453125 -0.546875q-0.5625 -0.546875 -0.5625 -1.421875l0 -14.984375q0 -3.6875 -1.9375 -5.84375q-1.921875 -2.15625 -4.9375 -2.15625q-3.21875 0 -5.296875 2.109375q-2.078125 2.09375 -2.078125 5.46875l-2.859375 0q0.09375 -3.328125 1.46875 -5.890625q1.390625 -2.578125 3.78125 -4.03125q2.390625 -1.453125 5.40625 -1.453125q3.0625 0 5.421875 1.453125q2.375 1.453125 3.703125 4.109375q1.328125 2.640625 1.328125 6.234375l0 14.984375q0 0.875 -0.546875 1.421875q-0.546875 0.546875 -1.4375 0.546875zm46.230057 0q-0.9375 0 -1.484375 -0.546875q-0.53125 -0.546875 -0.53125 -1.484375l0 -24.4375q0.046875 -0.890625 0.59375 -1.421875q0.546875 -0.546875 1.421875 -0.546875q0.890625 0 1.4375 0.546875q0.546875 0.53125 0.546875 1.46875l0 9.890625l10.96875 0l0 0.71875q2.703125 0 4.8125 1.0q2.109375 0.984375 3.265625 2.734375q1.171875 1.734375 1.171875 3.96875q0 2.390625 -1.171875 4.21875q-1.15625 1.8125 -3.265625 2.859375q-2.109375 1.03125 -4.8125 1.03125l-12.953125 0zm1.984375 -3.6875l10.96875 0q2.34375 0 3.84375 -1.1875q1.515625 -1.203125 1.515625 -3.4375q0 -2.34375 -1.515625 -3.5625q-1.5 -1.234375 -3.84375 -1.234375l-10.96875 0l0 9.421875zm5.828125 -10.609375l0 -2.234375l5.140625 0q1.8125 0 2.953125 -1.1875q1.15625 -1.203125 1.15625 -3.078125q0 -1.671875 -1.234375 -2.828125q-1.21875 -1.171875 -3.078125 -1.171875l-12.6875 0l0 -3.640625l12.6875 0q2.390625 0 4.234375 0.96875q1.84375 0.953125 2.90625 2.625q1.0625 1.65625 1.0625 3.828125q0 3.390625 -2.265625 5.0625q-2.25 1.65625 -5.734375 1.65625l-5.140625 0zm32.70027 14.8125q-3.375 0 -5.953125 -1.34375q-2.578125 -1.359375 -4.0625 -3.75q-1.46875 -2.390625 -1.46875 -5.515625l0 -16.375q0.046875 -0.890625 0.59375 -1.421875q0.546875 -0.546875 1.421875 -0.546875q0.890625 0 1.4375 0.546875q0.546875 0.53125 0.546875 1.46875l0 7.390625l7.6875 0q3.125 0 5.546875 1.171875q2.421875 1.171875 3.765625 3.328125q1.359375 2.15625 1.359375 5.125q0 3.015625 -1.390625 5.25q-1.375 2.234375 -3.84375 3.453125q-2.46875 1.21875 -5.640625 1.21875zm0 -3.6875q3.015625 0 4.984375 -1.5625q1.984375 -1.5625 1.984375 -4.671875q0 -3.125 -1.90625 -4.625q-1.890625 -1.515625 -4.859375 -1.515625l-7.6875 0l0 5.453125q0 3.015625 2.09375 4.96875q2.109375 1.953125 5.390625 1.953125zm17.375 3.171875q-0.890625 0 -1.4375 -0.546875q-0.546875 -0.546875 -0.546875 -1.484375l0 -24.390625q0 -0.9375 0.546875 -1.46875q0.546875 -0.546875 1.4375 -0.546875q0.921875 0 1.46875 0.546875q0.546875 0.53125 0.546875 1.46875l0 24.390625q0 0.9375 -0.546875 1.484375q-0.546875 0.546875 -1.46875 0.546875zm13.404266 12.171875q-0.9375 0 -1.484375 -0.546875q-0.53125 -0.546875 -0.53125 -1.484375l0 -24.546875q0.046875 -4.046875 1.9375 -7.296875q1.90625 -3.25 5.15625 -5.125q3.25 -1.875 7.296875 -1.875q4.171875 0 7.4375 1.90625q3.28125 1.890625 5.171875 5.171875q1.90625 3.265625 1.90625 7.421875q0 4.109375 -1.84375 7.390625q-1.84375 3.28125 -5.015625 5.1875q-3.171875 1.890625 -7.1875 1.890625q-3.484375 0 -6.3125 -1.484375q-2.828125 -1.484375 -4.546875 -3.921875l0 15.28125q0 0.9375 -0.546875 1.484375q-0.546875 0.546875 -1.4375 0.546875zm12.375 -15.546875q3.015625 0 5.40625 -1.40625q2.40625 -1.40625 3.78125 -3.875q1.375 -2.46875 1.375 -5.546875q0 -3.109375 -1.375 -5.546875q-1.375 -2.453125 -3.78125 -3.875q-2.390625 -1.4375 -5.40625 -1.4375q-2.953125 0 -5.34375 1.4375q-2.390625 1.421875 -3.75 3.875q-1.359375 2.4375 -1.359375 5.546875q0 3.078125 1.359375 5.546875q1.359375 2.46875 3.75 3.875q2.390625 1.40625 5.34375 1.40625zm35.310913 3.640625q-4.15625 0 -7.4375 -1.875q-3.265625 -1.875 -5.140625 -5.140625q-1.875 -3.28125 -1.875 -7.453125q0 -4.203125 1.875 -7.46875q1.875 -3.28125 5.140625 -5.15625q3.28125 -1.875 7.4375 -1.875q4.15625 0 7.40625 1.875q3.25 1.875 5.125 5.15625q1.875 3.265625 1.921875 7.46875q0 4.171875 -1.90625 7.453125q-1.890625 3.265625 -5.140625 5.140625q-3.25 1.875 -7.40625 1.875zm0 -3.640625q3.015625 0 5.40625 -1.40625q2.390625 -1.40625 3.734375 -3.84375q1.359375 -2.453125 1.359375 -5.578125q0 -3.109375 -1.359375 -5.578125q-1.34375 -2.46875 -3.734375 -3.875q-2.390625 -1.40625 -5.40625 -1.40625q-3.015625 0 -5.40625 1.40625q-2.390625 1.40625 -3.765625 3.875q-1.375 2.46875 -1.375 5.578125q0 3.125 1.375 5.578125q1.375 2.4375 3.765625 3.84375q2.390625 1.40625 5.40625 1.40625zm24.282166 3.375q-0.9375 0 -1.484375 -0.546875q-0.53125 -0.546875 -0.53125 -1.484375l0 -24.4375q0.046875 -0.890625 0.59375 -1.421875q0.546875 -0.546875 1.421875 -0.546875q0.890625 0 1.4375 0.546875q0.546875 0.53125 0.546875 1.46875l0 9.890625l10.96875 0l0 0.71875q2.703125 0 4.8125 1.0q2.109375 0.984375 3.265625 2.734375q1.171875 1.734375 1.171875 3.96875q0 2.390625 -1.171875 4.21875q-1.15625 1.8125 -3.265625 2.859375q-2.109375 1.03125 -4.8125 1.03125l-12.953125 0zm1.984375 -3.6875l10.96875 0q2.34375 0 3.84375 -1.1875q1.515625 -1.203125 1.515625 -3.4375q0 -2.34375 -1.515625 -3.5625q-1.5 -1.234375 -3.84375 -1.234375l-10.96875 0l0 9.421875zm5.828125 -10.609375l0 -2.234375l5.140625 0q1.8125 0 2.953125 -1.1875q1.15625 -1.203125 1.15625 -3.078125q0 -1.671875 -1.234375 -2.828125q-1.21875 -1.171875 -3.078125 -1.171875l-12.6875 0l0 -3.640625l12.6875 0q2.390625 0 4.234375 0.96875q1.84375 0.953125 2.90625 2.625q1.0625 1.65625 1.0625 3.828125q0 3.390625 -2.265625 5.0625q-2.25 1.65625 -5.734375 1.65625l-5.140625 0zm45.544006 14.296875q-0.890625 0 -1.46875 -0.546875q-0.5625 -0.546875 -0.5625 -1.484375l0 -24.390625q0 -0.9375 0.5625 -1.46875q0.578125 -0.546875 1.46875 -0.546875q0.890625 0 1.40625 0.546875q0.515625 0.53125 0.515625 1.46875l0 24.390625q0 0.9375 -0.515625 1.484375q-0.515625 0.546875 -1.40625 0.546875zm-22.359375 0q-0.890625 0 -1.4375 -0.546875q-0.53125 -0.546875 -0.53125 -1.484375l0 -24.390625q0 -0.9375 0.53125 -1.46875q0.546875 -0.546875 1.4375 -0.546875q0.890625 0 1.421875 0.546875q0.546875 0.53125 0.546875 1.46875l0 24.390625q0 0.9375 -0.546875 1.484375q-0.53125 0.546875 -1.421875 0.546875zm1.296875 -12.53125l0 -3.59375l20.4375 0l0 3.59375l-20.4375 0zm45.245026 12.796875q-4.21875 0 -7.46875 -1.84375q-3.25 -1.859375 -5.09375 -5.125q-1.84375 -3.28125 -1.84375 -7.5q0 -4.25 1.734375 -7.5q1.75 -3.25 4.8125 -5.125q3.078125 -1.875 7.078125 -1.875q3.953125 0 6.890625 1.796875q2.9375 1.796875 4.546875 4.96875q1.609375 3.171875 1.609375 7.21875q0 0.828125 -0.515625 1.328125q-0.515625 0.5 -1.359375 0.5l-22.09375 0l0 -3.328125l22.515625 0l-2.234375 1.609375q0.046875 -3.015625 -1.09375 -5.40625q-1.140625 -2.390625 -3.25 -3.734375q-2.109375 -1.359375 -5.015625 -1.359375q-2.96875 0 -5.203125 1.40625q-2.234375 1.390625 -3.453125 3.859375q-1.21875 2.46875 -1.21875 5.640625q0 3.171875 1.375 5.625q1.375 2.4375 3.765625 3.84375q2.390625 1.40625 5.515625 1.40625q1.875 0 3.765625 -0.640625q1.90625 -0.65625 3.046875 -1.640625q0.5625 -0.46875 1.296875 -0.5q0.734375 -0.03125 1.25 0.390625q0.671875 0.625 0.6875 1.359375q0.03125 0.71875 -0.578125 1.234375q-1.71875 1.46875 -4.375 2.4375q-2.65625 0.953125 -5.09375 0.953125zm43.36551 -0.265625q-0.890625 0 -1.46875 -0.546875q-0.5625 -0.546875 -0.5625 -1.484375l0 -24.390625q0 -0.9375 0.5625 -1.46875q0.578125 -0.546875 1.46875 -0.546875q0.890625 0 1.40625 0.546875q0.515625 0.53125 0.515625 1.46875l0 24.390625q0 0.9375 -0.515625 1.484375q-0.515625 0.546875 -1.40625 0.546875zm-22.359375 0q-0.890625 0 -1.4375 -0.546875q-0.53125 -0.546875 -0.53125 -1.484375l0 -24.390625q0 -0.9375 0.53125 -1.46875q0.546875 -0.546875 1.4375 -0.546875q0.890625 0 1.421875 0.546875q0.546875 0.53125 0.546875 1.46875l0 24.390625q0 0.9375 -0.546875 1.484375q-0.53125 0.546875 -1.421875 0.546875zm1.296875 -12.53125l0 -3.59375l20.4375 0l0 3.59375l-20.4375 0z" fill-rule="nonzero"/><path fill="#bf9000" d="m151.2076 402.72205q-0.875 0 -1.453125 -0.5625q-0.5625 -0.578125 -0.5625 -1.40625l0 -13.53125q0 -3.21875 -1.234375 -5.296875q-1.21875 -2.078125 -3.328125 -3.109375q-2.09375 -1.046875 -4.75 -1.046875q-2.546875 0 -4.609375 0.984375q-2.046875 0.984375 -3.25 2.703125q-1.1875 1.71875 -1.1875 3.890625l-2.859375 0q0.09375 -3.265625 1.75 -5.84375q1.671875 -2.578125 4.421875 -4.046875q2.765625 -1.484375 6.140625 -1.484375q3.703125 0 6.609375 1.53125q2.90625 1.53125 4.59375 4.5q1.703125 2.953125 1.703125 7.21875l0 13.53125q0 0.828125 -0.578125 1.40625q-0.5625 0.5625 -1.40625 0.5625zm-22.359375 0q-0.9375 0 -1.484375 -0.546875q-0.53125 -0.546875 -0.53125 -1.421875l0 -24.453125q0 -0.9375 0.53125 -1.46875q0.546875 -0.546875 1.484375 -0.546875q0.890625 0 1.4375 0.546875q0.546875 0.53125 0.546875 1.46875l0 24.453125q0 0.875 -0.546875 1.421875q-0.546875 0.546875 -1.4375 0.546875zm46.1259 0.265625q-4.15625 0 -7.4375 -1.875q-3.265625 -1.875 -5.140625 -5.140625q-1.875 -3.28125 -1.875 -7.453125q0 -4.203125 1.875 -7.46875q1.875 -3.28125 5.140625 -5.15625q3.28125 -1.875 7.4375 -1.875q4.15625 0 7.40625 1.875q3.25 1.875 5.125 5.15625q1.875 3.265625 1.921875 7.46875q0 4.171875 -1.90625 7.453125q-1.890625 3.265625 -5.140625 5.140625q-3.25 1.875 -7.40625 1.875zm0 -3.640625q3.015625 0 5.40625 -1.40625q2.390625 -1.40625 3.734375 -3.84375q1.359375 -2.453125 1.359375 -5.578125q0 -3.109375 -1.359375 -5.578125q-1.34375 -2.46875 -3.734375 -3.875q-2.390625 -1.40625 -5.40625 -1.40625q-3.015625 0 -5.40625 1.40625q-2.390625 1.40625 -3.765625 3.875q-1.375 2.46875 -1.375 5.578125q0 3.125 1.375 5.578125q1.375 2.4375 3.765625 3.84375q2.390625 1.40625 5.40625 1.40625zm50.190033 3.640625q-4.109375 0 -7.3125 -1.890625q-3.203125 -1.90625 -5.046875 -5.1875q-1.84375 -3.28125 -1.84375 -7.390625q0 -4.15625 1.765625 -7.421875q1.765625 -3.28125 4.828125 -5.171875q3.078125 -1.90625 7.078125 -1.90625q3.171875 0 5.84375 1.25q2.6875 1.25 4.71875 3.734375q0.5625 0.625 0.40625 1.328125q-0.15625 0.703125 -0.875 1.234375q-0.578125 0.40625 -1.28125 0.28125q-0.703125 -0.140625 -1.21875 -0.75q-3.015625 -3.4375 -7.59375 -3.4375q-2.90625 0 -5.125 1.40625q-2.203125 1.40625 -3.421875 3.84375q-1.21875 2.4375 -1.21875 5.609375q0 3.125 1.296875 5.578125q1.296875 2.4375 3.640625 3.84375q2.34375 1.40625 5.359375 1.40625q2.015625 0 3.703125 -0.546875q1.703125 -0.546875 3.0 -1.6875q0.625 -0.53125 1.296875 -0.578125q0.671875 -0.046875 1.25 0.421875q0.625 0.5625 0.703125 1.296875q0.078125 0.71875 -0.5 1.25q-3.796875 3.484375 -9.453125 3.484375zm31.143158 0q-4.21875 0 -7.46875 -1.84375q-3.25 -1.859375 -5.09375 -5.125q-1.84375 -3.28125 -1.84375 -7.5q0 -4.25 1.734375 -7.5q1.75 -3.25 4.8125 -5.125q3.078125 -1.875 7.078125 -1.875q3.953125 0 6.890625 1.796875q2.9375 1.796875 4.546875 4.96875q1.609375 3.171875 1.609375 7.21875q0 0.828125 -0.515625 1.328125q-0.515625 0.5 -1.359375 0.5l-22.09375 0l0 -3.328125l22.515625 0l-2.234375 1.609375q0.046875 -3.015625 -1.09375 -5.40625q-1.140625 -2.390625 -3.25 -3.734375q-2.109375 -1.359375 -5.015625 -1.359375q-2.96875 0 -5.203125 1.40625q-2.234375 1.390625 -3.453125 3.859375q-1.21875 2.46875 -1.21875 5.640625q0 3.171875 1.375 5.625q1.375 2.4375 3.765625 3.84375q2.390625 1.40625 5.515625 1.40625q1.875 0 3.765625 -0.640625q1.90625 -0.65625 3.046875 -1.640625q0.5625 -0.46875 1.296875 -0.5q0.734375 -0.03125 1.25 0.390625q0.671875 0.625 0.6875 1.359375q0.03125 0.71875 -0.578125 1.234375q-1.71875 1.46875 -4.375 2.4375q-2.65625 0.953125 -5.09375 0.953125zm57.45929 -0.265625q-0.890625 0 -1.46875 -0.546875q-0.5625 -0.546875 -0.5625 -1.421875l0 -14.984375q0 -3.6875 -1.921875 -5.84375q-1.921875 -2.15625 -4.9375 -2.15625q-3.234375 0 -5.28125 2.15625q-2.046875 2.15625 -2.0 5.734375l-3.59375 0q0.0625 -3.484375 1.515625 -6.125q1.453125 -2.65625 4.0 -4.109375q2.546875 -1.453125 5.765625 -1.453125q3.078125 0 5.4375 1.453125q2.375 1.453125 3.6875 4.109375q1.328125 2.640625 1.328125 6.234375l0 14.984375q0 0.875 -0.546875 1.421875q-0.546875 0.546875 -1.421875 0.546875zm-36.40625 0q-0.9375 0 -1.484375 -0.546875q-0.53125 -0.546875 -0.53125 -1.421875l0 -24.453125q0 -0.875 0.53125 -1.4375q0.546875 -0.578125 1.484375 -0.578125q0.890625 0 1.4375 0.578125q0.546875 0.5625 0.546875 1.4375l0 24.453125q0 0.875 -0.546875 1.421875q-0.546875 0.546875 -1.4375 0.546875zm18.25 0q-0.875 0 -1.453125 -0.546875q-0.5625 -0.546875 -0.5625 -1.421875l0 -14.984375q0 -3.6875 -1.9375 -5.84375q-1.921875 -2.15625 -4.9375 -2.15625q-3.21875 0 -5.296875 2.109375q-2.078125 2.09375 -2.078125 5.46875l-2.859375 0q0.09375 -3.328125 1.46875 -5.890625q1.390625 -2.578125 3.78125 -4.03125q2.390625 -1.453125 5.40625 -1.453125q3.0625 0 5.421875 1.453125q2.375 1.453125 3.703125 4.109375q1.328125 2.640625 1.328125 6.234375l0 14.984375q0 0.875 -0.546875 1.421875q-0.546875 0.546875 -1.4375 0.546875zm51.072144 -0.515625q-0.515625 0.515625 -1.375 0.515625q-0.859375 0 -1.375 -0.578125l-12.4375 -13.625l11.90625 -13.609375q0.53125 -0.578125 1.296875 -0.625q0.78125 -0.0625 1.359375 0.40625q0.625 0.578125 0.671875 1.28125q0.0625 0.703125 -0.46875 1.328125l-9.765625 11.015625l10.296875 11.34375q0.515625 0.5625 0.515625 1.265625q0 0.703125 -0.625 1.28125zm-20.171875 0.515625q-0.890625 0 -1.40625 -0.546875q-0.515625 -0.546875 -0.515625 -1.421875l0 -24.453125q0 -0.9375 0.515625 -1.46875q0.515625 -0.546875 1.40625 -0.546875q0.9375 0 1.46875 0.546875q0.546875 0.53125 0.546875 1.46875l0 10.296875l6.34375 0l0 3.640625l-6.34375 0l0 10.515625q0 0.875 -0.546875 1.421875q-0.53125 0.546875 -1.46875 0.546875zm37.592773 0.265625q-4.21875 0 -7.46875 -1.84375q-3.25 -1.859375 -5.09375 -5.125q-1.84375 -3.28125 -1.84375 -7.5q0 -4.25 1.734375 -7.5q1.75 -3.25 4.8125 -5.125q3.078125 -1.875 7.078125 -1.875q3.953125 0 6.890625 1.796875q2.9375 1.796875 4.546875 4.96875q1.609375 3.171875 1.609375 7.21875q0 0.828125 -0.515625 1.328125q-0.515625 0.5 -1.359375 0.5l-22.09375 0l0 -3.328125l22.515625 0l-2.234375 1.609375q0.046875 -3.015625 -1.09375 -5.40625q-1.140625 -2.390625 -3.25 -3.734375q-2.109375 -1.359375 -5.015625 -1.359375q-2.96875 0 -5.203125 1.40625q-2.234375 1.390625 -3.453125 3.859375q-1.21875 2.46875 -1.21875 5.640625q0 3.171875 1.375 5.625q1.375 2.4375 3.765625 3.84375q2.390625 1.40625 5.515625 1.40625q1.875 0 3.765625 -0.640625q1.90625 -0.65625 3.046875 -1.640625q0.5625 -0.46875 1.296875 -0.5q0.734375 -0.03125 1.25 0.390625q0.671875 0.625 0.6875 1.359375q0.03125 0.71875 -0.578125 1.234375q-1.71875 1.46875 -4.375 2.4375q-2.65625 0.953125 -5.09375 0.953125z" fill-rule="nonzero"/></g></svg>